<?xml version="1.0" encoding="UTF-8" standalone="no"?>
<!-- Created with Inkscape (http://www.inkscape.org/) -->

<svg
   version="1.1"
   id="svg1"
   width="565.8717"
   height="438.97278"
   viewBox="0 0 565.8717 438.97278"
   sodipodi:docname="quack_icon.svg"
   inkscape:version="1.3.2 (091e20e, 2023-11-25)"
   xmlns:inkscape="http://www.inkscape.org/namespaces/inkscape"
   xmlns:sodipodi="http://sodipodi.sourceforge.net/DTD/sodipodi-0.dtd"
   xmlns="http://www.w3.org/2000/svg"
   xmlns:svg="http://www.w3.org/2000/svg">
  <defs
     id="defs1" />
  <sodipodi:namedview
     id="namedview1"
     pagecolor="#ffffff"
     bordercolor="#000000"
     borderopacity="0.25"
     inkscape:showpageshadow="2"
     inkscape:pageopacity="0.0"
     inkscape:pagecheckerboard="0"
     inkscape:deskcolor="#d1d1d1"
     inkscape:zoom="0.53500551"
     inkscape:cx="657.93715"
     inkscape:cy="426.16384"
     inkscape:window-width="1472"
     inkscape:window-height="895"
     inkscape:window-x="0"
     inkscape:window-y="33"
     inkscape:window-maximized="1"
     inkscape:current-layer="g1" />
  <g
     inkscape:groupmode="layer"
     inkscape:label="Image"
     id="g1"
     transform="translate(-81.728065,-70.772745)">
    <g
       id="g4"
       transform="matrix(0.88359246,0,0,0.88359246,-48.386057,-57.047319)">
      <path
         style="fill:#f7812b;fill-opacity:1"
         d="m 550.37124,418.89864 c -9.9,-0.41757 -32.4,-1.32118 -50,-2.00802 -17.6,-0.68684 -32.35924,-1.57963 -32.79832,-1.98397 -0.43908,-0.40435 2.26092,-3.21352 6,-6.24261 20.4869,-16.59679 36.12414,-36.34976 48.79003,-61.63162 9.02602,-18.01646 16.91306,-42.37138 19.07868,-58.9143 0.378,-2.8875 1.08824,-5.25 1.57831,-5.25 0.49008,0 2.58625,1.07014 4.65817,2.37808 13.02033,8.21938 43.17806,20.12559 72.19313,28.5017 27.12002,7.82906 74.605,17.35333 110.5,22.16348 9.4695,1.26898 14.6804,3.28321 18,6.9578 2.915,3.22677 2.6498,12.14622 -0.5205,17.49894 -18.2592,30.82948 -55.176,51.66243 -101.9795,57.54927 -10.76972,1.35458 -71.78513,1.98151 -95.5,0.98125 z"
         id="path3" />
      <path
         style="display:inline;fill:#fcbc31;fill-opacity:1"
         d="m 184.67176,475.11812 c -0.37779,-133.98796 -0.48467,-131.32386 6.32387,-157.63131 10.16418,-39.27322 29.47393,-71.22869 58.87561,-97.43253 36.90361,-32.88983 84.06035,-49.09518 134.24969,-46.13474 17.07386,1.00711 30.46887,3.56198 46.812,8.92858 36.99412,12.14778 65.78626,33.84138 89.44098,67.38977 5.52693,7.8386 5.63147,8.81015 2.91918,27.13023 -8.73448,58.99699 -41.47403,107.67258 -90.92185,135.17826 -15.95224,8.87354 -28.70225,15.87514 -42,23.06407 -7.15,3.86537 -28.3,15.33369 -47,25.48515 -18.7,10.15145 -42.775,23.20005 -53.5,28.99689 -10.725,5.79684 -35.025,18.97151 -54,29.27705 -18.975,10.30554 -37.72464,20.48362 -41.66586,22.61796 -3.94123,2.13434 -7.65373,3.88062 -8.25,3.88062 -0.76676,0 -1.14254,-20.71212 -1.28362,-70.75 z"
         id="path2" />
      <path
         style="fill:#41464e;fill-opacity:1"
         d="m 500.87124,607.89212 c -17.325,-2.6563 -38.925,-6.01227 -48,-7.4577 -25.67927,-4.0901 -125.92547,-19.36727 -151.5,-23.08808 -36.63966,-5.33066 -90.79452,-13.47061 -93.25,-14.0163 -3.42347,-0.76081 -2.74803,-1.87711 3,-4.95813 2.8875,-1.54774 11.775,-6.40072 19.75,-10.78441 29.24323,-16.07437 35.85393,-19.68939 53.5,-29.25612 9.9,-5.36724 20.25,-10.98531 23,-12.48459 2.75,-1.49929 11.075,-5.98205 18.5,-9.96171 7.425,-3.97965 14.85,-8.03762 16.5,-9.01771 1.65,-0.98009 8.625,-4.82174 15.5,-8.537 15.13827,-8.18073 38.34562,-20.77708 62.30028,-33.81496 l 17.80028,-9.68822 11.30951,8.41026 c 27.13891,20.18172 49.88404,46.99028 65.09086,76.7194 13.31672,26.03401 21.82481,57.13311 22.68286,82.91127 l 0.31621,9.5 -2.5,0.17682 c -1.375,0.0973 -16.675,-1.99652 -34,-4.65282 z"
         id="path1" />
      <ellipse
         style="fill:#41464e;fill-opacity:1;fill-rule:evenodd;stroke:#41464e;stroke-width:2;stroke-dasharray:none;stroke-opacity:1"
         id="path4"
         cx="444.27866"
         cy="293.3114"
         rx="26.29377"
         ry="25.667727" />
    </g>
  </g>
</svg>
