<?xml version="1.0" encoding="UTF-8"?>
<svg width="1024" height="1024" viewBox="0 0 1024 1024" xmlns="http://www.w3.org/2000/svg">
  <g transform="translate(0, 0) scale(1.7066666666666668)">
    <style>.a{fill:#f7812b}.b{fill:#fcbc31}.c{fill:#41464e}.d{fill:#41464e;stroke:#41464e;stroke-width:1.8}</style><path class="a" d="m373.1 322.3c-8.7-0.4-28.6-1.2-44.2-1.8-15.5-0.6-28.5-1.4-28.9-1.8-0.4-0.3 2-2.8 5.3-5.5 18.1-14.6 31.9-32.1 43.1-54.4 7.9-15.9 14.9-37.5 16.8-52.1 0.4-2.5 1-4.6 1.4-4.6 0.4 0 2.3 0.9 4.1 2.1 11.5 7.3 38.2 17.8 63.8 25.2 24 6.9 65.9 15.3 97.6 19.6 8.4 1.1 13 2.9 15.9 6.1 2.6 2.8 2.4 10.7-0.4 15.5-16.2 27.2-48.8 45.6-90.1 50.8-9.5 1.2-63.4 1.7-84.4 0.9z"/><path class="b" d="m50.1 371.9c-0.4-118.3-0.5-116 5.5-139.2 9-34.7 26.1-62.9 52-86.1 32.7-29.1 74.3-43.4 118.6-40.8 15.1 0.9 27 3.2 41.4 7.9 32.7 10.8 58.1 29.9 79 59.6 4.9 6.9 5 7.7 2.6 23.9-7.7 52.2-36.6 95.2-80.3 119.4-14.1 7.9-25.4 14.1-37.1 20.4-6.3 3.4-25 13.6-41.6 22.5-16.5 9-37.7 20.5-47.2 25.7-9.5 5.1-31 16.7-47.7 25.8-16.8 9.1-33.3 18.1-36.8 20-3.5 1.9-6.8 3.4-7.3 3.4-0.7 0-1-18.3-1.1-62.5z"/><path class="c" d="m329.4 489.2c-15.3-2.3-34.4-5.3-42.4-6.6-22.7-3.6-111.3-17.1-133.9-20.4-32.3-4.7-80.2-11.9-82.3-12.3-3.1-0.7-2.5-1.7 2.6-4.4 2.6-1.4 10.4-5.7 17.5-9.6 25.8-14.2 31.6-17.4 47.2-25.8 8.8-4.7 17.9-9.7 20.3-11 2.5-1.4 9.8-5.3 16.4-8.8 6.5-3.5 13.1-7.1 14.6-8 1.4-0.9 7.6-4.3 13.7-7.5 13.3-7.3 33.8-18.4 55-29.9l15.7-8.6 10 7.5c24 17.8 44.1 41.5 57.5 67.7 11.8 23 19.3 50.5 20 73.3l0.3 8.4-2.2 0.1c-1.2 0.1-14.7-1.7-30-4.1z"/><path fill-rule="evenodd" class="d" d="m279.4 234c-12.9 0-23.2-10.1-23.2-22.7 0-12.5 10.3-22.7 23.2-22.7 12.8 0 23.2 10.2 23.2 22.7 0 12.6-10.4 22.7-23.2 22.7z"/>
  </g>
</svg>